<svg width="55" height="55" viewBox="0 0 55 55" fill="none" xmlns="http://www.w3.org/2000/svg">
<path d="M39.775 13.162C39.241 13.162 38.719 13.3203 38.275 13.617C37.831 13.9137 37.4849 14.3353 37.2805 14.8287C37.0762 15.3221 37.0227 15.8649 37.1269 16.3887C37.2311 16.9124 37.4882 17.3935 37.8658 17.7711C38.2434 18.1487 38.7245 18.4059 39.2483 18.5101C39.772 18.6143 40.3149 18.5608 40.8083 18.3564C41.3016 18.1521 41.7233 17.806 42.02 17.362C42.3167 16.918 42.475 16.396 42.475 15.862C42.475 15.1459 42.1905 14.4591 41.6842 13.9528C41.1778 13.4464 40.4911 13.162 39.775 13.162ZM50.125 18.607C50.0812 16.7401 49.7316 14.8931 49.09 13.1395C48.5179 11.639 47.6275 10.2803 46.48 9.15695C45.3659 8.00366 44.004 7.11885 42.4975 6.56945C40.7485 5.90831 38.8994 5.55068 37.03 5.51195C34.645 5.37695 33.88 5.37695 27.76 5.37695C21.64 5.37695 20.875 5.37695 18.49 5.51195C16.6206 5.55068 14.7715 5.90831 13.0225 6.56945C11.5188 7.12441 10.1581 8.00846 9.04001 9.15695C7.88672 10.2711 7.00191 11.6329 6.45251 13.1395C5.79137 14.8885 5.43373 16.7375 5.39501 18.607C5.26001 20.992 5.26001 21.757 5.26001 27.877C5.26001 33.997 5.26001 34.762 5.39501 37.147C5.43373 39.0164 5.79137 40.8654 6.45251 42.6144C7.00191 44.121 7.88672 45.4828 9.04001 46.5969C10.1581 47.7454 11.5188 48.6295 13.0225 49.1844C14.7715 49.8456 16.6206 50.2032 18.49 50.242C20.875 50.3769 21.64 50.3769 27.76 50.3769C33.88 50.3769 34.645 50.3769 37.03 50.242C38.8994 50.2032 40.7485 49.8456 42.4975 49.1844C44.004 48.6351 45.3659 47.7502 46.48 46.5969C47.6325 45.4778 48.5238 44.1179 49.09 42.6144C49.7316 40.8608 50.0812 39.0138 50.125 37.147C50.125 34.762 50.26 33.997 50.26 27.877C50.26 21.757 50.26 20.992 50.125 18.607ZM46.075 36.8769C46.0586 38.3052 45.7999 39.7203 45.31 41.062C44.9508 42.0411 44.3737 42.9259 43.6225 43.6494C42.8927 44.3931 42.0098 44.9689 41.035 45.3369C39.6933 45.8269 38.2782 46.0856 36.85 46.1019C34.6 46.2145 33.7675 46.2369 27.85 46.2369C21.9325 46.2369 21.1 46.2369 18.85 46.1019C17.367 46.1297 15.8903 45.9014 14.485 45.4269C13.553 45.0401 12.7106 44.4657 12.01 43.7394C11.2632 43.0166 10.6934 42.1311 10.345 41.1519C9.79569 39.791 9.49101 38.3438 9.44501 36.8769C9.44501 34.6269 9.31001 33.7945 9.31001 27.877C9.31001 21.9595 9.31001 21.127 9.44501 18.877C9.45509 17.4168 9.72165 15.9698 10.2325 14.602C10.6286 13.6523 11.2366 12.8057 12.01 12.127C12.6936 11.3533 13.5384 10.7389 14.485 10.327C15.8565 9.83205 17.302 9.57338 18.76 9.56195C21.01 9.56195 21.8425 9.42695 27.76 9.42695C33.6775 9.42695 34.51 9.42695 36.76 9.56195C38.1882 9.57833 39.6033 9.83701 40.945 10.327C41.9675 10.7064 42.8852 11.3234 43.6225 12.127C44.3598 12.8181 44.936 13.6631 45.31 14.602C45.8101 15.9721 46.0689 17.4185 46.075 18.877C46.1875 21.127 46.21 21.9595 46.21 27.877C46.21 33.7945 46.1875 34.6269 46.075 36.8769ZM27.76 16.3345C25.4781 16.3389 23.2487 17.0196 21.3535 18.2906C19.4583 19.5616 17.9824 21.3659 17.1122 23.4754C16.242 25.5849 16.0166 27.905 16.4645 30.1425C16.9125 32.3801 18.0135 34.4347 19.6287 36.0467C21.2438 37.6586 23.3005 38.7557 25.5389 39.1993C27.7773 39.6428 30.097 39.4129 32.2048 38.5387C34.3126 37.6644 36.114 36.1849 37.3813 34.2873C38.6486 32.3896 39.325 30.1589 39.325 27.877C39.328 26.3584 39.0307 24.8543 38.4503 23.4511C37.8699 22.0479 37.0178 20.7733 35.943 19.7006C34.8682 18.6279 33.5919 17.7782 32.1876 17.2005C30.7832 16.6229 29.2785 16.3285 27.76 16.3345ZM27.76 35.3694C26.2781 35.3694 24.8295 34.93 23.5974 34.1067C22.3653 33.2835 21.4049 32.1133 20.8378 30.7442C20.2708 29.3751 20.1224 27.8686 20.4115 26.4152C20.7006 24.9618 21.4142 23.6268 22.462 22.579C23.5099 21.5311 24.8449 20.8175 26.2983 20.5284C27.7517 20.2393 29.2582 20.3877 30.6273 20.9548C31.9963 21.5219 33.1665 22.4822 33.9898 23.7143C34.8131 24.9465 35.2525 26.3951 35.2525 27.877C35.2525 28.8609 35.0587 29.8352 34.6822 30.7442C34.3056 31.6532 33.7537 32.4792 33.058 33.1749C32.3623 33.8707 31.5363 34.4226 30.6273 34.7991C29.7182 35.1757 28.7439 35.3694 27.76 35.3694Z" fill="#444444"/>
</svg>
