<svg width="52" height="50" viewBox="0 0 52 50" fill="none" xmlns="http://www.w3.org/2000/svg">
<g clip-path="url(#clip0_23_39)">
<path d="M0.000243247 6.04494C0.000243247 4.39508 0.585846 3.03397 1.757 1.96161C2.92815 0.889205 4.45071 0.353027 6.32457 0.353027C8.165 0.353027 9.65402 0.88094 10.7917 1.93686C11.9629 3.02575 12.5485 4.44457 12.5485 6.19342C12.5485 7.77726 11.9797 9.09709 10.8419 10.153C9.67079 11.2419 8.13152 11.7863 6.22418 11.7863H6.17399C4.33356 11.7863 2.84453 11.2419 1.70681 10.153C0.569081 9.06412 0.000243247 7.69475 0.000243247 6.04494ZM0.652753 49.3529V16.2904H11.7956V49.3529H0.652753ZM17.9694 49.3529H29.1122V30.8914C29.1122 29.7364 29.2461 28.8455 29.5138 28.2186C29.9822 27.0967 30.6933 26.1481 31.647 25.3727C32.6006 24.5972 33.7969 24.2096 35.2358 24.2096C38.9835 24.2096 40.8574 26.7008 40.8574 31.6833V49.3529H52.0002V30.3964C52.0002 25.5129 50.8291 21.8091 48.4867 19.2848C46.1444 16.7606 43.0492 15.4985 39.201 15.4985C34.8844 15.4985 31.5215 17.3298 29.1122 20.9924V21.0914H29.062L29.1122 20.9924V16.2904H17.9694C18.0363 17.3462 18.0697 20.6294 18.0697 26.1399C18.0697 31.6503 18.0363 39.3879 17.9694 49.3529Z" fill="#444444"/>
</g>
<defs>
<clipPath id="clip0_23_39">
<rect width="52" height="49" fill="white" transform="translate(0.000244141 0.352539)"/>
</clipPath>
</defs>
</svg>
